<svg width="18" height="18" viewBox="0 0 18 18" fill="none" xmlns="http://www.w3.org/2000/svg">
<circle cx="8.7" cy="8.7" r="8.7" fill="#FFA542"/>
<path d="M12.8075 12.695V14H5.26252V12.98L9.53752 8.85503C10.0575 8.35503 10.4075 7.92503 10.5875 7.56503C10.7675 7.19503 10.8575 6.82503 10.8575 6.45503C10.8575 5.90503 10.6625 5.48003 10.2725 5.18003C9.89252 4.87003 9.34252 4.71503 8.62252 4.71503C7.46252 4.71503 6.56752 5.09503 5.93752 5.85503L4.91752 4.97003C5.32752 4.47003 5.86252 4.08003 6.52252 3.80003C7.19252 3.52003 7.93752 3.38003 8.75752 3.38003C9.85752 3.38003 10.7325 3.64503 11.3825 4.17503C12.0325 4.69503 12.3575 5.40503 12.3575 6.30503C12.3575 6.86503 12.2375 7.39503 11.9975 7.89503C11.7575 8.39503 11.3025 8.96503 10.6325 9.60503L7.42252 12.695H12.8075Z" fill="white"/>
</svg>
